<?xml version="1.0" encoding="UTF-8"?>
<svg version="1.1" xmlns="http://www.w3.org/2000/svg" width="200" height="200">
<path d="M0 0 C66 0 132 0 200 0 C200 66 200 132 200 200 C134 200 68 200 0 200 C0 134 0 68 0 0 Z " fill="#FBFBFC" transform="translate(0,0)"/>
<path d="M0 0 C4.62 0 9.24 0 14 0 C14 5.28 14 10.56 14 16 C19.94 16 25.88 16 32 16 C34.43482474 24.74733331 36.62276266 33.50434932 38.5625 42.375 C38.75996826 43.26968994 38.95743652 44.16437988 39.16088867 45.08618164 C41.01451577 53.68124215 42.5066972 62.3366712 44 71 C44.76199203 70.99777939 45.52398407 70.99555878 46.30906677 70.99327087 C53.47551712 70.97326843 60.64195401 70.95802612 67.80842495 70.94818783 C71.49314498 70.94295992 75.17784203 70.93586395 78.86254883 70.92456055 C82.41570831 70.91372838 85.96884563 70.90772247 89.52202034 70.90512276 C90.88045666 70.9032691 92.23889171 70.89964962 93.59731865 70.89426994 C95.49382223 70.88705525 97.39034793 70.88659191 99.28686523 70.88647461 C100.36830307 70.884254 101.44974091 70.88203339 102.56394958 70.87974548 C105 71 105 71 106 72 C106.89316435 81.22936499 103.88300431 88.70903761 98.125 95.9375 C92.58225943 101.71639743 88.67797491 103.24457103 80.6875 103.4375 C76.17805828 103.32719076 72.31308482 103.00571564 68.0625 101.5 C59.27100172 98.41268455 48.96176738 98.87529473 40.3984375 102.3203125 C33.34278375 104.31979744 24.95138011 103.94369058 18.0625 101.5 C8.81693043 98.2586484 -1.65083661 99.18093914 -10.76953125 102.296875 C-14.65366966 103.52129691 -18.04135647 104.21694286 -22 103 C-28.24996463 98.11470654 -32.24797247 90.86373899 -36 84 C-36.36867188 83.36707031 -36.73734375 82.73414063 -37.1171875 82.08203125 C-41.74250366 73.67399528 -44 64.52987007 -44 55 C-36.08 55 -28.16 55 -20 55 C-20.061875 51.060625 -20.12375 47.12125 -20.1875 43.0625 C-20.19418701 41.83926025 -20.20087402 40.61602051 -20.20776367 39.35571289 C-20.39323177 32.807998 -21.20371899 28.38888011 -25.0324707 22.99780273 C-26 21 -26 21 -25 16 C-16.75 16 -8.5 16 0 16 C0 10.72 0 5.44 0 0 Z " fill="#050606" transform="translate(64,81)"/>
<path d="M0 0 C0.83885742 -0.01740234 1.67771484 -0.03480469 2.54199219 -0.05273438 C10.10423335 -0.0467634 16.55775393 1.85880482 22.75 6.3125 C33.67924496 18.17795589 35.62236511 30.57350624 35.13671875 46.12890625 C34.63985715 54.87022224 32.26817212 62.21942607 25.75 68.3125 C19.4304989 72.54546756 14.86665989 75.443442 7.2109375 75.41015625 C5.25800781 75.40532227 5.25800781 75.40532227 3.265625 75.40039062 C1.88541601 75.39203466 0.50520768 75.38356971 -0.875 75.375 C-2.26301926 75.36998501 -3.65104022 75.3654221 -5.0390625 75.36132812 C-8.44275132 75.34950976 -11.84635439 75.33303434 -15.25 75.3125 C-16.16705514 66.82852889 -17.080088 58.34413848 -17.98806 49.85919094 C-18.4098408 45.9188528 -18.83297946 41.97867057 -19.25927734 38.03881836 C-19.67100956 34.23310674 -20.07910167 30.42702045 -20.48472595 26.62065315 C-20.63972236 25.17214236 -20.79600608 23.72376869 -20.95362854 22.27554131 C-21.17502128 20.23930503 -21.39173508 18.202619 -21.60742188 16.16577148 C-21.73177612 15.00883286 -21.85613037 13.85189423 -21.98425293 12.65989685 C-22.25920519 9.19654975 -22.29540504 5.78524351 -22.25 2.3125 C-14.84932808 0.6277942 -7.56477718 0.07265763 0 0 Z " fill="#FDFEFE" transform="translate(134.25,76.6875)"/>
<path d="M0 0 C12.12147111 12.57292255 15.46776232 28.7057815 15.21484375 45.6640625 C14.88656178 54.99868906 12.23869845 63.26809662 7 71 C6.50886719 71.90234375 6.01773438 72.8046875 5.51171875 73.734375 C1.53069092 77.32534878 -2.59455507 76.53560514 -7.75 76.3125 C-9.22533203 76.27866211 -9.22533203 76.27866211 -10.73046875 76.24414062 C-13.1551947 76.18528805 -15.57681983 76.10313431 -18 76 C-15.2400584 73.90506531 -12.44251049 72.01649196 -9.5 70.1875 C-2.6715298 65.62026092 0.05441774 59.78158871 2 52 C2.42510574 48.38490348 2.47735893 44.82478508 2.4375 41.1875 C2.42992676 40.21989746 2.42235352 39.25229492 2.41455078 38.25537109 C2.17564179 27.87067737 0.08754461 19.64736264 -6.73046875 11.62109375 C-8 10 -8 10 -9 7 C-11.16621868 5.8974827 -11.16621868 5.8974827 -14 5 C-15.17949219 4.48953125 -16.35898438 3.9790625 -17.57421875 3.453125 C-22.34067483 1.66550009 -26.70869914 1.62513806 -31.75 1.75 C-32.56726563 1.75515625 -33.38453125 1.7603125 -34.2265625 1.765625 C-38.94802074 1.82445937 -43.62477074 2.10844853 -48.32910156 2.51269531 C-49.39533752 2.60367493 -50.46157349 2.69465454 -51.56011963 2.78839111 C-52.36528015 2.85822205 -53.17044067 2.92805298 -54 3 C-53.92705215 3.65431 -53.85410431 4.30862 -53.77894592 4.98275757 C-53.01577319 11.82908744 -52.25339078 18.675505 -51.49145508 25.52197266 C-51.20747574 28.07277622 -50.92329888 30.6235578 -50.63891602 33.17431641 C-50.2288021 36.8531316 -49.81941243 40.5320268 -49.41015625 44.2109375 C-49.28407486 45.34050873 -49.15799347 46.47007996 -49.02809143 47.63388062 C-46.85753997 67.16747812 -46.85753997 67.16747812 -47 76 C-50.63 76 -54.26 76 -58 76 C-60.02701339 69.12578066 -61.20944636 62.80319502 -61.47265625 55.68359375 C-61.90486251 46.3775174 -62.89208113 37.18382292 -64 27.9375 C-65.3915403 16.29653696 -66.43702423 4.71230338 -67 -7 C-62.80560759 -7.43501974 -58.61047947 -7.86185978 -54.41455078 -8.28173828 C-52.99278344 -8.42510169 -51.57122396 -8.57054473 -50.14990234 -8.71826172 C-32.25451016 -10.57473501 -14.7690491 -12.21695741 0 0 Z " fill="#39B8F1" transform="translate(166,76)"/>
<path d="M0 0 C14.52 0 29.04 0 44 0 C49.49590229 20.88442871 49.49590229 20.88442871 50.6015625 28.36328125 C51.11430711 31.75644408 51.81548514 35.09862497 52.53515625 38.453125 C53.17411886 41.95399576 53.57879197 45.46632553 54 49 C50.64675035 49.20504349 47.29512597 49.32818195 43.9375 49.4375 C42.99455078 49.49615234 42.05160156 49.55480469 41.08007812 49.61523438 C34.12966969 49.78475653 34.12966969 49.78475653 30.90820312 47.546875 C29.14958813 45.77503734 27.57165458 43.93778316 26 42 C24.55830167 40.68979207 23.10370397 39.3932955 21.625 38.125 C18.02777778 35.02777778 18.02777778 35.02777778 17 34 C14.81707226 33.76518307 12.62796826 33.58636677 10.4375 33.4375 C9.23996094 33.35371094 8.04242188 33.26992187 6.80859375 33.18359375 C5.41833984 33.09271484 5.41833984 33.09271484 4 33 C4 30.03 4 27.06 4 24 C8.29 24 12.58 24 17 24 C17 20.7 17 17.4 17 14 C12.71 14 8.42 14 4 14 C3.54427083 11.81901042 3.08854167 9.63802083 2.6328125 7.45703125 C1.93319515 4.52346075 1.93319515 4.52346075 0 0 Z " fill="#FBFBFB" transform="translate(47,103)"/>
<path d="M0 0 C3.49060317 2.07950827 5.6691931 4.12856175 7 8 C7 9.32 7 10.64 7 12 C7.763125 12.0825 8.52625 12.165 9.3125 12.25 C12 13 12 13 13.8125 14.5 C15.61830517 18.30169509 15.56003611 21.86604927 15 26 C12.91891892 30.54054054 12.91891892 30.54054054 10 32 C8.5463006 32.1145425 7.08765422 32.16936407 5.62963867 32.19287109 C4.27264107 32.21696548 4.27264107 32.21696548 2.88822937 32.24154663 C-1.25102 32.28598861 -5.39010887 32.32706103 -9.52954102 32.35009766 C-11.71291766 32.3666593 -13.89624004 32.39395188 -16.0793457 32.43212891 C-19.2263605 32.48688444 -22.3721043 32.50876989 -25.51953125 32.5234375 C-26.49364456 32.54610687 -27.46775787 32.56877625 -28.47138977 32.59213257 C-33.11519022 32.57765419 -35.29542077 32.52323137 -39.1159668 29.68603516 C-41 27 -41 27 -41.625 23.5 C-40.83870692 19.09675873 -39.57997706 17.62531651 -36 15 C-33.1875 14.6875 -33.1875 14.6875 -31 15 C-30.773125 14.236875 -30.54625 13.47375 -30.3125 12.6875 C-28.67850666 9.34170411 -27.3962677 8.46657014 -24 7 C-18.81355932 6.59322034 -18.81355932 6.59322034 -16 8 C-15.6596875 7.13375 -15.6596875 7.13375 -15.3125 6.25 C-11.67147605 0.00824465 -6.7927155 -1.23279773 0 0 Z " fill="#F9FAFC" transform="translate(82,43)"/>
<path d="M0 0 C3.375 2.0625 3.375 2.0625 6 5 C6.875 8.8125 6.875 8.8125 7 12 C8.1446875 12.1546875 8.1446875 12.1546875 9.3125 12.3125 C13.3772242 13.35231317 13.3772242 13.35231317 15 16 C15.50415226 20.46534856 15.73860892 22.61928644 13.61352539 26.59179688 C9.64128002 30.25197701 5.91308482 29.71841905 0.6875 29.6640625 C-0.82130737 29.67123795 -0.82130737 29.67123795 -2.3605957 29.67855835 C-4.48553025 29.68195815 -6.61051703 29.67275021 -8.73535156 29.65185547 C-11.98881603 29.625092 -15.2388304 29.65160158 -18.4921875 29.68359375 C-20.55729929 29.68028967 -22.62240892 29.67388347 -24.6875 29.6640625 C-25.66050049 29.67418365 -26.63350098 29.68430481 -27.63598633 29.69473267 C-34.34521277 29.5782427 -34.34521277 29.5782427 -37.65234375 26.65771484 C-39.37017566 23.26997605 -39.11525646 21.5847529 -38 18 C-36 16 -36 16 -34.0546875 15.8046875 C-32.03645833 15.86979167 -30.01822917 15.93489583 -28 16 C-27.938125 15.2575 -27.87625 14.515 -27.8125 13.75 C-27 11 -27 11 -25 8.625 C-20.7925225 6.34594969 -17.56914225 7.08418064 -13 8 C-12.87882812 7.38640625 -12.75765625 6.7728125 -12.6328125 6.140625 C-10.85921379 0.14104419 -5.53063667 -0.87325842 0 0 Z " fill="#FCFDFD" transform="translate(139,8)"/>
<path d="M0 0 C1.47943027 0.29032661 2.95852623 0.58235679 4.4375 0.875 C5.35917969 1.05546875 6.28085937 1.2359375 7.23046875 1.421875 C8.88764319 1.7678014 10.53965795 2.14339206 12.17578125 2.578125 C22.64866163 5.3393364 33.50203158 4.68258164 43.76953125 1.44140625 C47.04287927 0.79361584 50.22990792 0.86848467 53.5625 0.875 C54.23474609 0.87113281 54.90699219 0.86726562 55.59960938 0.86328125 C58.67499752 0.86938927 61.06026313 1.02008771 64 2 C64 2.66 64 3.32 64 4 C67.66651247 4.08796382 71.33274918 4.14071247 75 4.1875 C76.02996094 4.21263672 77.05992188 4.23777344 78.12109375 4.26367188 C84.60145323 4.32558614 89.03689022 3.44754506 95 1 C98.4140625 0.671875 98.4140625 0.671875 101.625 0.75 C103.22214844 0.77320313 103.22214844 0.77320313 104.8515625 0.796875 C107.95931502 0.99737516 110.94020771 1.43030894 114 2 C114 2.66 114 3.32 114 4 C124.31514524 4.29691783 133.86790491 4.31692572 143.921875 1.75390625 C147.26542494 0.9349911 150.58799423 0.44150326 154 0 C154.33 1.32 154.66 2.64 155 4 C145.58044575 8.79118068 136.65723465 10.15547531 126.1875 10.25 C125.11145508 10.26401855 125.11145508 10.26401855 124.01367188 10.27832031 C120.78053305 10.25873466 118.0836213 10.02794654 115.0078125 9 C111.20980387 7.73728544 107.6426068 7.70083006 103.6875 7.75 C102.92622803 7.75386719 102.16495605 7.75773438 101.38061523 7.76171875 C97.63716254 7.81946457 94.18856024 7.98874814 90.5625 9 C81.47032261 11.4910075 70.27634505 10.9288006 61.2578125 8.453125 C54.23374587 7.04345073 46.65747032 7.5147704 39.6875 9 C25.26208987 11.88929998 12.76469005 9.50773475 -1 5 C-0.67 3.35 -0.34 1.7 0 0 Z " fill="#171717" transform="translate(18,184)"/>
<path d="M0 0 C4.16769505 1.31611423 6.24832991 4.21604605 8.46484375 7.8046875 C9.15234375 9.6796875 9.15234375 9.6796875 9.15234375 12.6796875 C9.91546875 12.7415625 10.67859375 12.8034375 11.46484375 12.8671875 C14.15234375 13.6796875 14.15234375 13.6796875 16.02734375 15.6796875 C17.60360427 19.88304889 17.3584142 23.37803622 16.15234375 27.6796875 C14.25170693 30.13212211 12.8937952 31.30896177 10.15234375 32.6796875 C8.76524551 32.79381183 7.37303078 32.84898335 5.98144531 32.87255859 C5.12004944 32.88862152 4.25865356 32.90468445 3.37115479 32.92123413 C-0.57514655 32.96573296 -4.52127971 33.00676083 -8.46777344 33.02978516 C-10.54731447 33.04633065 -12.62679897 33.073602 -14.70605469 33.11181641 C-17.70667988 33.1666768 -20.70597158 33.18847451 -23.70703125 33.203125 C-24.63223572 33.22579437 -25.55744019 33.24846375 -26.51068115 33.27182007 C-30.92265487 33.25743309 -33.91765068 33.1037979 -37.43383789 30.27807617 C-39.84765625 27.6796875 -39.84765625 27.6796875 -40.609375 25.58203125 C-40.46975876 21.8858751 -40.15242344 20.01928523 -37.66015625 17.2421875 C-34.84765625 15.6796875 -34.84765625 15.6796875 -32.22265625 15.2421875 C-29.59819119 14.9056265 -29.59819119 14.9056265 -28.22265625 12.2421875 C-27.76890625 11.3965625 -27.31515625 10.5509375 -26.84765625 9.6796875 C-23.53394625 7.4705475 -22.50305415 7.45487197 -18.66015625 7.5546875 C-17.75910156 7.57273437 -16.85804687 7.59078125 -15.9296875 7.609375 C-15.24261719 7.63257813 -14.55554688 7.65578125 -13.84765625 7.6796875 C-13.41646484 6.76123047 -13.41646484 6.76123047 -12.9765625 5.82421875 C-9.92619833 0.02958232 -6.0839577 -0.99205966 0 0 Z M-12.84765625 6.6796875 C-12.84765625 7.6696875 -12.84765625 8.6596875 -12.84765625 9.6796875 C-13.42773438 9.54949219 -14.0078125 9.41929688 -14.60546875 9.28515625 C-19.28918929 8.40806441 -19.28918929 8.40806441 -23.78125 9.5859375 C-25.67148698 10.98965921 -25.67148698 10.98965921 -27.84765625 13.6796875 C-27.84765625 14.9996875 -27.84765625 16.3196875 -27.84765625 17.6796875 C-29.10578125 17.5971875 -30.36390625 17.5146875 -31.66015625 17.4296875 C-35.07413831 17.42670833 -35.07413831 17.42670833 -37.91015625 19.3046875 C-39.18068519 22.52336081 -38.82779098 24.38923519 -37.84765625 27.6796875 C-36.24511109 29.76533694 -35.37645921 30.5794249 -32.76747131 31.07409668 C-31.96901291 31.08251587 -31.1705545 31.09093506 -30.34790039 31.09960938 C-29.44008316 31.11552124 -28.53226593 31.13143311 -27.59693909 31.14782715 C-26.61877731 31.14802856 -25.64061554 31.14822998 -24.6328125 31.1484375 C-23.62552597 31.15605103 -22.61823944 31.16366455 -21.58042908 31.17150879 C-19.44955932 31.18231706 -17.31863656 31.18515995 -15.18774414 31.18066406 C-11.92569689 31.17969213 -8.66600409 31.22129829 -5.40429688 31.265625 C-3.33464033 31.27083216 -1.2649756 31.27352019 0.8046875 31.2734375 C1.78082504 31.28983276 2.75696259 31.30622803 3.76268005 31.32312012 C9.31378857 31.34567633 9.31378857 31.34567633 13.76586914 28.27368164 C15.91420124 24.254307 15.72735904 22.20793292 15.15234375 17.6796875 C13.56707394 15.09258878 13.56707394 15.09258878 11.15234375 13.6796875 C9.83234375 13.6796875 8.51234375 13.6796875 7.15234375 13.6796875 C7.11109375 12.6278125 7.06984375 11.5759375 7.02734375 10.4921875 C6.4398774 6.5258655 6.4398774 6.5258655 3.52734375 3.7421875 C-3.36144762 -0.46762945 -7.67612193 1.25588321 -12.84765625 6.6796875 Z " fill="#45649F" transform="translate(138.84765625,6.3203125)"/>
<path d="M0 0 C0.72445312 -0.00322266 1.44890625 -0.00644531 2.1953125 -0.00976562 C5.9807029 0.02864701 7.78295894 0.16780596 11 2.3125 C11.3125 5.3125 11.3125 5.3125 11 8.3125 C8.38184261 10.93065739 6.49531662 10.57362488 2.92773438 10.5859375 C1.75694336 10.57433594 1.75694336 10.57433594 0.5625 10.5625 C-0.60249023 10.57410156 -0.60249023 10.57410156 -1.79101562 10.5859375 C-5.70052168 10.57246806 -7.67947032 10.52618645 -11 8.3125 C-11.41686582 5.60287215 -11.44345974 4.02338966 -9.9765625 1.671875 C-6.88039587 -0.45750442 -3.61899539 -0.08049367 0 0 Z " fill="#F3F3F3" transform="translate(49,149.6875)"/>
<path d="M0 0 C3.49060317 2.07950827 5.6691931 4.12856175 7 8 C7 9.32 7 10.64 7 12 C7.763125 12.0825 8.52625 12.165 9.3125 12.25 C12 13 12 13 13.8125 14.5 C15.61830517 18.30169509 15.56003611 21.86604927 15 26 C12.91891892 30.54054054 12.91891892 30.54054054 10 32 C8.5463006 32.1145425 7.08765422 32.16936407 5.62963867 32.19287109 C4.27264107 32.21696548 4.27264107 32.21696548 2.88822937 32.24154663 C-1.25102 32.28598861 -5.39010887 32.32706103 -9.52954102 32.35009766 C-11.71291766 32.3666593 -13.89624004 32.39395188 -16.0793457 32.43212891 C-19.2263605 32.48688444 -22.3721043 32.50876989 -25.51953125 32.5234375 C-26.49364456 32.54610687 -27.46775787 32.56877625 -28.47138977 32.59213257 C-33.11519022 32.57765419 -35.29542077 32.52323137 -39.1159668 29.68603516 C-41 27 -41 27 -41.625 23.5 C-40.83870692 19.09675873 -39.57997706 17.62531651 -36 15 C-33.1875 14.6875 -33.1875 14.6875 -31 15 C-30.773125 14.236875 -30.54625 13.47375 -30.3125 12.6875 C-28.67850666 9.34170411 -27.3962677 8.46657014 -24 7 C-18.81355932 6.59322034 -18.81355932 6.59322034 -16 8 C-15.6596875 7.13375 -15.6596875 7.13375 -15.3125 6.25 C-11.67147605 0.00824465 -6.7927155 -1.23279773 0 0 Z M-14 6 C-14.94436349 8.16531168 -14.94436349 8.16531168 -15 10 C-15.66 9.67 -16.32 9.34 -17 9 C-22.15128202 8.23174383 -22.15128202 8.23174383 -26.63671875 10.26953125 C-29.2355946 13.25252823 -29.2355946 13.25252823 -30 17 C-31.093125 16.9175 -32.18625 16.835 -33.3125 16.75 C-36.93661157 16.64937908 -36.93661157 16.64937908 -39 18.5625 C-40.44746494 22.09069578 -39.99247239 24.36093456 -39 28 C-37.19922319 30.09984037 -35.70994697 30.8963808 -32.97244263 31.29592896 C-30.36404692 31.44881064 -27.77305006 31.49448727 -25.16015625 31.50390625 C-24.20104843 31.51389145 -23.24194061 31.52387665 -22.25376892 31.53416443 C-20.22724721 31.54933808 -18.20065072 31.55639045 -16.17407227 31.5559082 C-13.07637987 31.5624706 -9.98189103 31.61696174 -6.88476562 31.67382812 C-4.91407345 31.68263046 -2.94336607 31.6885845 -0.97265625 31.69140625 C-0.04856461 31.7129628 0.87552704 31.73451935 1.82762146 31.75672913 C6.57405718 31.76886987 6.57405718 31.76886987 10.70632935 29.72311401 C12.8648315 27.24985519 13.95559356 25.21315091 14.625 22 C13.74168708 17.76009796 12.09539681 16.02341084 9 13 C8.01 13 7.02 13 6 13 C5.938125 12.113125 5.87625 11.22625 5.8125 10.3125 C4.77342458 6.07626943 3.48865501 4.59793458 0 2 C-6.28976016 -0.34248269 -9.6188413 1.19141118 -14 6 Z " fill="#345797" transform="translate(82,43)"/>
<path d="M0 0 C1.93166016 0.01740234 1.93166016 0.01740234 3.90234375 0.03515625 C5.19269531 0.04417969 6.48304687 0.05320312 7.8125 0.0625 C8.81152344 0.07410156 9.81054688 0.08570312 10.83984375 0.09765625 C10.83984375 3.39765625 10.83984375 6.69765625 10.83984375 10.09765625 C5.88984375 10.09765625 0.93984375 10.09765625 -4.16015625 10.09765625 C-4.2578125 3.1640625 -4.2578125 3.1640625 -4.16015625 1.09765625 C-3.16015625 0.09765625 -3.16015625 0.09765625 0 0 Z " fill="#1A1A1A" transform="translate(75.16015625,116.90234375)"/>
<path d="M0 0 C0.66 0.33 1.32 0.66 2 1 C1.65129851 9.15961482 1.65129851 9.15961482 -0.9375 12.5 C-3.95140598 14.69193162 -5.59322614 15.12401935 -9.26611328 15.11352539 C-10.58725632 15.11341209 -10.58725632 15.11341209 -11.93508911 15.11329651 C-12.88721283 15.10813522 -13.83933655 15.10297394 -14.8203125 15.09765625 C-15.79410858 15.0962413 -16.76790466 15.09482635 -17.77120972 15.09336853 C-20.88917073 15.08775973 -24.0070606 15.07520573 -27.125 15.0625 C-29.23567605 15.05748613 -31.34635322 15.05292303 -33.45703125 15.04882812 C-38.63804521 15.03778745 -43.81901752 15.02104073 -49 15 C-48.67 14.34 -48.34 13.68 -48 13 C-46.68281982 12.9906543 -45.36563965 12.98130859 -44.00854492 12.97167969 C-39.12733992 12.93184486 -34.24676954 12.86610427 -29.3659668 12.79248047 C-27.25244288 12.76423305 -25.13881257 12.74303736 -23.02514648 12.72900391 C-19.988865 12.70762666 -16.95386771 12.66100331 -13.91796875 12.609375 C-12.97100632 12.60814636 -12.02404388 12.60691772 -11.04838562 12.60565186 C-6.00884253 12.6449155 -6.00884253 12.6449155 -1.91210938 10.09570312 C-0.95717375 7.9016005 -0.51093969 6.13127623 -0.3125 3.75 C-0.209375 2.5125 -0.10625 1.275 0 0 Z " fill="#637EAF" transform="translate(154,24)"/>
<path d="M0 0 C3.59199301 0.99777583 4.93391293 1.91783769 7.3125 4.875 C9 8 9 8 9 12 C9.763125 12.0825 10.52625 12.165 11.3125 12.25 C14 13 14 13 15.8125 14.5 C17.61993915 18.30513505 17.55311697 21.86268503 17 26 C15.6875 29 15.6875 29 14 31 C13.01 31.33 12.02 31.66 11 32 C12.20381448 29.50638429 13.45428722 27.31856917 15 25 C15.50326079 21.14166724 15.31669325 19.49142057 13.1875 16.1875 C11.11646187 13.79036863 11.11646187 13.79036863 8 13 C7.26171875 11.00390625 7.26171875 11.00390625 6.6875 8.5625 C6.02972065 6.12111417 6.02972065 6.12111417 5 4 C1.97115156 2.31963489 1.97115156 2.31963489 -1 2 C-0.67 1.34 -0.34 0.68 0 0 Z " fill="#4B69A2" transform="translate(80,43)"/>
<path d="M0 0 C0.66 0.33 1.32 0.66 2 1 C1.64989059 9.19256018 1.64989059 9.19256018 -1.0625 12.5625 C-1.701875 13.036875 -2.34125 13.51125 -3 14 C-3.66 13.67 -4.32 13.34 -5 13 C-4.360625 12.34 -3.72125 11.68 -3.0625 11 C-0.41087498 7.14309088 -0.31332879 4.62159967 0 0 Z " fill="#4867A1" transform="translate(154,24)"/>
<path d="M0 0 C0.33 0 0.66 0 1 0 C1.29201904 4.96432365 1.14707573 8.03701574 -2 12 C-2.99 12.33 -3.98 12.66 -5 13 C-3.79618552 10.50638429 -2.54571278 8.31856917 -1 6 C-0.60986284 4.0103005 -0.26797351 2.00980131 0 0 Z " fill="#41619D" transform="translate(96,62)"/>
</svg>
